<svg xmlns="http://www.w3.org/2000/svg" xmlns:xlink="http://www.w3.org/1999/xlink" version="1.1" x="0px" y="0px" viewBox="0 0 100 125" enable-background="new 0 0 100 100" xml:space="preserve"><g><path fill="none" d="M56.188,28.241c-0.155-3.519-2.067-9.513-6.711-9.162c-4.673,0.352-6.53,5.089-6.71,9.162   c0.107,2.43,1.054,6.042,3.16,7.929c0.279,0.103,0.521,0.285,0.683,0.514c0.811,0.52,1.759,0.805,2.868,0.723   C53.883,37.075,56.366,32.303,56.188,28.241z"/><path fill="#000000" d="M56.555,60.096c5.53-0.482,11.502-3.521,12.599-9.408c0.311-1.66-2.23-2.37-2.541-0.7   c-0.706,3.794-3.567,5.583-7.023,6.788c-2.394,0.834-6.563,1.811-7.738-1.163c-0.536-1.356-0.698-2.867-0.774-4.348   c0.028-0.505,0.051-1.006,0.069-1.495c0.034-0.918-0.716-1.335-1.426-1.262c-0.683-0.032-1.375,0.387-1.342,1.268   c0.017,0.429,0.037,0.856,0.064,1.284c-0.089,1.246-0.244,2.475-0.521,3.708c-0.784,3.482-4.075,2.914-6.834,2.323   c-3.871-0.83-7.415-3.021-8.177-7.109c-0.311-1.67-2.852-0.962-2.542,0.7c1.104,5.929,6.816,8.545,12.25,9.358   c2.142,0.321,4.91,0.552,6.369-1.4c0.305-0.408,0.551-0.847,0.773-1.297c0.109,0.246,0.218,0.492,0.347,0.732   C51.404,60.505,54.211,60.299,56.555,60.096z"/><path fill="#000000" d="M47.692,65.102c-0.028,0.776-0.104,1.526-0.326,2.273c-0.381,1.281-2.505,0.501-3.36,0.204   c-1.479-0.517-2.229-1.831-2.638-3.264c-0.233-0.815-1.504-0.47-1.271,0.35c0.732,2.562,2.316,4.012,4.925,4.57   c1.005,0.216,2.418,0.381,3.114-0.552c0.751-1.003,0.829-2.373,0.873-3.582C49.041,64.251,47.723,64.253,47.692,65.102z"/><path fill="#000000" d="M47.692,70.434c-0.028,0.776-0.104,1.526-0.326,2.273c-0.381,1.281-2.505,0.501-3.36,0.204   c-1.479-0.517-2.229-1.833-2.638-3.267c-0.233-0.815-1.504-0.467-1.271,0.351c0.732,2.563,2.314,4.012,4.925,4.572   c1.005,0.214,2.418,0.381,3.114-0.553c0.751-1.005,0.829-2.372,0.873-3.581C49.041,69.583,47.723,69.585,47.692,70.434z"/><path fill="#000000" d="M47.692,76.1c-0.028,0.776-0.104,1.525-0.326,2.273c-0.381,1.28-2.505,0.5-3.36,0.204   c-1.479-0.518-2.229-1.833-2.638-3.267c-0.233-0.815-1.504-0.47-1.271,0.35c0.732,2.564,2.313,4.012,4.925,4.572   c1.005,0.217,2.417,0.381,3.114-0.552c0.75-1.005,0.829-2.373,0.873-3.581C49.041,75.249,47.723,75.251,47.692,76.1z"/><path fill="#000000" d="M58.154,64.481c-0.427,1.493-1.169,2.651-2.639,3.265c-0.647,0.271-2.614,0.943-3.162,0.212   c-0.521-0.698-0.493-1.863-0.522-2.689c-0.031-0.849-1.349-0.851-1.318,0c0.044,1.209,0.122,2.578,0.873,3.581   c0.722,0.966,2.08,0.707,3.114,0.553c2.605-0.39,4.225-2.119,4.925-4.57C59.658,64.013,58.387,63.666,58.154,64.481z"/><path fill="#000000" d="M58.154,69.812c-0.427,1.493-1.169,2.65-2.639,3.267c-0.647,0.27-2.615,0.943-3.162,0.212   c-0.521-0.698-0.493-1.863-0.522-2.689c-0.031-0.849-1.349-0.851-1.318,0c0.044,1.209,0.122,2.578,0.873,3.581   c0.722,0.966,2.08,0.707,3.114,0.552c2.604-0.389,4.225-2.119,4.925-4.571C59.658,69.344,58.387,68.996,58.154,69.812z"/><path fill="#000000" d="M58.154,75.478c-0.427,1.493-1.169,2.65-2.639,3.266c-0.647,0.271-2.615,0.943-3.162,0.213   c-0.521-0.698-0.493-1.864-0.522-2.69c-0.031-0.848-1.349-0.851-1.318,0c0.044,1.209,0.123,2.579,0.873,3.582   c0.722,0.966,2.08,0.706,3.114,0.552c2.605-0.392,4.225-2.119,4.925-4.572C59.658,75.01,58.387,74.662,58.154,75.478z"/><path fill="#000000" d="M97.912,36.56c-2.993-5.046-6.678-9.734-10.267-14.363c-2.697-3.477-4.731-6.407-9.772-5.154   c-5.332,1.328-9.222,3.692-6.337,9.659c2.301,4.76,5.822,1.997,9.512,0.489c1.062-0.434,0.357-0.823,0.983,0.874   c0.588,1.59,1.041,3.234,1.513,4.86c0.312,1.073,0.611,2.15,0.903,3.229c-1.412-0.56-2.895-0.88-4.484-0.997   c-2.598-0.193-4.201,4.019-5.981,3.755c-3.445-0.511-6.366-2.219-10.014-1.339c-3.457,0.834-5.534,2.752-8.139-0.636   c1.897-2.474,2.873-5.955,2.994-8.696c0.249-5.643-3.515-11.359-9.347-11.798c-6.024-0.453-8.99,6.547-9.321,11.467   c-0.02,0.103-0.031,0.212-0.026,0.332c-0.005,0.118,0.005,0.225,0.024,0.326c0.208,3.336,1.345,6.639,3.54,8.845   c-2.097,2.412-3.57,1.172-6.57,0.449c-3.849-0.929-7.522-0.266-11.203,1.051c-0.516,0.183-4.298-3.425-5.631-3.707   c-1.503-0.319-3.221,0.133-4.787,0.835c0.188-0.692,0.368-1.387,0.561-2.077c0.383-1.378,0.792-2.749,1.215-4.115   c0.188-0.598,0.384-1.192,0.592-1.783c0.28-0.822,0.54-0.994,0.491-1.058c2.68,0.71,7.507,4.863,9.495,0.749   c2.754-5.696,1.356-8.091-4.037-10.267c-5.234-2.112-8.031,0.238-10.982,3.967C9.18,26.078,5.638,30.833,2.46,35.8   c-1.673,2.615-3.438,5.692-2.04,8.784c0.729,1.608,2.576,2.738,3.94,3.743c3.47,2.557,7.344,5.351,11.388,6.881   c3.04,1.151,7.172,2.208,10.424,0.878c0.953,1.925,1.267,4.132,1.878,6.196c0.861,2.908,2.801,5.458,3.965,8.244   c1.598,3.828,2.405,8.252,2.311,12.402c-0.039,1.701,2.598,1.696,2.636,0c0.088-3.885-0.708-7.767-1.823-11.465   c-1.062-3.528-3.208-6.481-4.548-9.882c-1.062-2.695-1.084-5.47-2.767-7.91c-0.075-0.108-0.159-0.194-0.247-0.271   c-0.366-0.414-0.951-0.601-1.556-0.203c-2.366,1.551-5.753,0.727-8.216-0.019c-3.627-1.098-6.85-3.6-9.973-5.659   c-1.805-1.19-3.941-2.403-5.136-4.268c-1.333-2.08,2.09-6.222,3.11-7.771c2.584-3.932,5.432-7.705,8.314-11.422   c0.815-1.051,1.647-2.09,2.495-3.116c2.234-2.705,6.222-1.175,8.911,0.117c2.113,1.016,0.914,6.668-1.995,5.359   c-0.931-0.419-1.85-0.863-2.783-1.279c-0.892-0.399-2.197-1.112-3.226-0.854c-3.495,0.879-4.61,11.1-5.378,14.086   c-0.273,1.057,0.939,2.163,1.936,1.487c2.026-1.372,5.394-3.137,7.778-0.966c0.782,0.71,1.299,1.718,2.238,2.268   c0.532,0.311,1.108,0.5,1.716,0.409c2.894-0.428,5.381-1.542,8.421-1.551c2.885-0.008,4.847,3.267,7.766,1.948   c1.525-0.688,2.742-1.738,3.789-2.991c1.07,0.576,2.291,0.958,3.688,1.063c1.741,0.131,3.219-0.375,4.461-1.261   c2.426,3.034,5.372,4.523,8.856,1.922c4.021-3.002,8.848,2.113,12.696,0.594c0.778-0.31,1.33-1.016,1.867-1.625   c2.395-2.715,5.972-1.499,8.464,0.189c0.997,0.676,2.209-0.431,1.937-1.487c-0.769-2.986-1.884-13.207-5.379-14.086   c-3.63-0.913-7.001,5.915-8.927-0.155c-1.391-4.383,7.404-5.98,9.483-3.603c0.994,1.137,1.915,2.343,2.846,3.531   c2.686,3.431,5.263,6.953,7.727,10.547c1.322,1.928,4.874,6.045,3.697,8.646c-1.692,3.74-9.271,7.109-12.62,8.889   c-2.826,1.499-7.737,3.013-10.755,1.051c-0.091-0.061-0.182-0.105-0.271-0.14c-0.425-0.206-0.933-0.158-1.326,0.346   c-2.61,3.332-2.551,7.972-4.651,11.623c-0.065,0.114-0.106,0.227-0.137,0.337c-2.932,5.344-4.632,11.452-4.537,17.57   c0.027,1.698,2.663,1.701,2.636,0c-0.092-5.997,1.647-11.966,4.653-17.12c0.075-0.129,0.119-0.256,0.148-0.381   c0.729-1.427,1.285-2.903,1.733-4.461c0.459-1.599,0.7-3.435,1.517-4.927c2.85,1.188,6.421,0.52,9.196-0.319   c3.877-1.167,7.274-3.726,10.609-5.925c1.925-1.269,4.489-2.729,5.772-4.732C100.997,42.22,99.454,39.161,97.912,36.56z    M46.609,36.684c-0.162-0.229-0.403-0.411-0.683-0.514c-2.106-1.887-3.053-5.499-3.16-7.929c0.18-4.073,2.038-8.81,6.71-9.162   c4.644-0.351,6.556,5.644,6.711,9.162c0.179,4.062-2.305,8.834-6.711,9.165C48.368,37.488,47.419,37.203,46.609,36.684z"/></g></svg>